<svg xmlns="http://www.w3.org/2000/svg" xmlns:xlink="http://www.w3.org/1999/xlink" viewBox="0,0,256,256" width="24px" height="24px" fill-rule="nonzero"><g transform="translate(-21.33333,-21.33333) scale(1.16667,1.16667)"><g fill="#000000" fill-rule="nonzero" stroke="none" stroke-width="1" stroke-linecap="butt" stroke-linejoin="miter" stroke-miterlimit="10" stroke-dasharray="" stroke-dashoffset="0" font-family="none" font-weight="none" font-size="none" text-anchor="none" style="mix-blend-mode: normal"><g transform="translate(10.64778,0.02083) scale(10.66667,10.66667)"><path d="M4.41406,1.99609l-3.41016,0.01758l0.00977,2l2.07031,-0.00977l3.29492,7.9043l-1.19727,1.91602c-0.4,0.64 -0.42069,1.44842 -0.05469,2.10742c0.366,0.659 1.06045,1.06836 1.81445,1.06836h12.05859v-2h-12.05859l-0.06445,-0.11719l1.17578,-1.88281h7.46875c0.727,0 1.39605,-0.3953 1.74805,-1.0293l3.60352,-6.48437c0.173,-0.31 0.16828,-0.68814 -0.01172,-0.99414c-0.18,-0.305 -0.50928,-0.49219 -0.86328,-0.49219h-14.74805zM6.08203,6h12.2168l-2.77734,5h-7.35547zM7,18c-1.10457,0 -2,0.89543 -2,2c0,1.10457 0.89543,2 2,2c1.10457,0 2,-0.89543 2,-2c0,-1.10457 -0.89543,-2 -2,-2zM17,18c-1.10457,0 -2,0.89543 -2,2c0,1.10457 0.89543,2 2,2c1.10457,0 2,-0.89543 2,-2c0,-1.10457 -0.89543,-2 -2,-2z"></path></g></g></g></svg>