<svg xmlns="http://www.w3.org/2000/svg" xmlns:xlink="http://www.w3.org/1999/xlink" viewBox="0,0,256,256" width="50px" height="50px" fill-rule="nonzero"><g fill="#ffffff" fill-rule="nonzero" stroke="none" stroke-width="1" stroke-linecap="butt" stroke-linejoin="miter" stroke-miterlimit="10" stroke-dasharray="" stroke-dashoffset="0" font-family="none" font-weight="none" font-size="none" text-anchor="none" style="mix-blend-mode: normal"><g transform="scale(5.12,5.12)"><path d="M16.375,9c-6.25781,0 -11.375,5.05469 -11.375,11.28125c0,12.76953 14.48828,19.45703 19.375,23.5l0.625,0.53125l0.625,-0.53125c4.88672,-4.04297 19.375,-10.73047 19.375,-23.5c0,-6.22656 -5.11719,-11.28125 -11.375,-11.28125c-3.47656,0 -6.53906,1.61328 -8.625,4.0625c-2.08594,-2.44922 -5.14844,-4.0625 -8.625,-4.0625zM16.375,11c3.26563,0 6.10547,1.65234 7.78125,4.15625l0.84375,1.25l0.84375,-1.25c1.67578,-2.50391 4.51563,-4.15625 7.78125,-4.15625c5.18359,0 9.375,4.14453 9.375,9.28125c0,10.89844 -12.26172,17.00781 -18,21.5c-5.73828,-4.49219 -18,-10.60156 -18,-21.5c0,-5.13672 4.1875,-9.28125 9.375,-9.28125z"></path></g></g></svg>