<svg xmlns="http://www.w3.org/2000/svg" xmlns:xlink="http://www.w3.org/1999/xlink" viewBox="0,0,256,256" width="64px" height="64px" fill-rule="nonzero"><g fill="#ffffff" fill-rule="nonzero" stroke="none" stroke-width="1" stroke-linecap="butt" stroke-linejoin="miter" stroke-miterlimit="10" stroke-dasharray="" stroke-dashoffset="0" font-family="none" font-weight="none" font-size="none" text-anchor="none" style="mix-blend-mode: normal"><g transform="scale(2,2)"><path d="M9,11c-1.7,0 -3,1.3 -3,3c0,1.7 1.3,3 3,3h7v74c0,5.5 4.5,10 10,10h50c1.7,0 3,-1.3 3,-3c0,-1.7 -1.3,-3 -3,-3h-50c-2.2,0 -4,-1.8 -4,-4v-64h87.30078c1.3,0 2.49922,0.59922 3.19922,1.69922c0.8,1.1 1,2.40156 0.5,3.60156l-13.69922,41.19922c-1.5,4.5 -5.60039,7.5 -10.40039,7.5h-55.90039c-1.7,0 -3,1.3 -3,3c0,1.7 1.3,3 3,3h55.90039c7.3,0 13.79961,-4.69961 16.09961,-11.59961l13.69922,-41.20117c1,-3.1 0.50156,-6.4 -1.39844,-9c-1.9,-2.6 -4.90156,-4.19922 -8.10156,-4.19922h-87.19922v-7c0,-1.7 -1.3,-3 -3,-3zM26,107c-5.5,0 -10,4.5 -10,10c0,5.5 4.5,10 10,10c5.5,0 10,-4.5 10,-10c0,-5.5 -4.5,-10 -10,-10zM76,107c-5.5,0 -10,4.5 -10,10c0,5.5 4.5,10 10,10c5.5,0 10,-4.5 10,-10c0,-5.5 -4.5,-10 -10,-10zM26,113c2.2,0 4,1.8 4,4c0,2.2 -1.8,4 -4,4c-2.2,0 -4,-1.8 -4,-4c0,-2.2 1.8,-4 4,-4zM76,113c2.2,0 4,1.8 4,4c0,2.2 -1.8,4 -4,4c-2.2,0 -4,-1.8 -4,-4c0,-2.2 1.8,-4 4,-4z"></path></g></g></svg>