<svg xmlns="http://www.w3.org/2000/svg" xmlns:xlink="http://www.w3.org/1999/xlink" viewBox="0,0,256,256" width="50px" height="50px" fill-rule="nonzero"><g fill="#fffafa" fill-rule="nonzero" stroke="none" stroke-width="1" stroke-linecap="butt" stroke-linejoin="miter" stroke-miterlimit="10" stroke-dasharray="" stroke-dashoffset="0" font-family="none" font-weight="none" font-size="none" text-anchor="none" style="mix-blend-mode: normal"><g transform="scale(5.12,5.12)"><path d="M25.875,3.40625c-4.67187,0.08594 -7.65625,1.97266 -8.9375,4.90625c-1.22266,2.79297 -0.94922,6.32031 -0.0625,9.96875c-0.47656,0.55859 -0.85547,1.30859 -0.71875,2.4375c0.14844,1.23047 0.48828,2.10547 0.96875,2.71875c0.26563,0.33594 0.61328,0.36719 0.9375,0.53125c0.17578,1.04688 0.46875,2.09375 0.90625,2.96875c0.25,0.50391 0.53516,0.96875 0.8125,1.34375c0.125,0.16797 0.30469,0.26563 0.4375,0.40625c0.00781,1.23438 0.01172,2.26172 -0.09375,3.5625c-0.32422,0.78516 -1.08203,1.41797 -2.3125,2.03125c-1.26953,0.63281 -2.92187,1.21875 -4.59375,1.9375c-1.67187,0.71875 -3.39062,1.59375 -4.75,2.96875c-1.35937,1.375 -2.32031,3.26172 -2.46875,5.75l-0.0625,1.0625h40.125l-0.0625,-1.0625c-0.14844,-2.48828 -1.11328,-4.375 -2.46875,-5.75c-1.35547,-1.375 -3.05469,-2.25 -4.71875,-2.96875c-1.66406,-0.71875 -3.29687,-1.30469 -4.5625,-1.9375c-1.21484,-0.60937 -1.98047,-1.22656 -2.3125,-2c-0.10937,-1.31641 -0.10156,-2.34766 -0.09375,-3.59375c0.13281,-0.14453 0.3125,-0.23828 0.4375,-0.40625c0.27344,-0.37891 0.53516,-0.84375 0.78125,-1.34375c0.42578,-0.875 0.73438,-1.92578 0.90625,-2.96875c0.3125,-0.16406 0.64844,-0.20312 0.90625,-0.53125c0.48047,-0.61328 0.82031,-1.48828 0.96875,-2.71875c0.13281,-1.09375 -0.23437,-1.81641 -0.6875,-2.375c0.48828,-1.58594 1.11328,-4.14844 0.90625,-6.78125c-0.11328,-1.4375 -0.48047,-2.87109 -1.34375,-4.0625c-0.78906,-1.09375 -2.07031,-1.89062 -3.6875,-2.21875c-1.05078,-1.36328 -2.94141,-1.875 -5.125,-1.875zM25.90625,5.40625c0.01172,0 0.01953,0 0.03125,0c2.01172,0.00781 3.31641,0.59766 3.6875,1.25l0.25,0.40625l0.46875,0.0625c1.39063,0.19141 2.1875,0.75391 2.75,1.53125c0.5625,0.77734 0.875,1.86328 0.96875,3.0625c0.1875,2.39844 -0.50391,5.19141 -0.9375,6.5l-0.25,0.78125l0.6875,0.40625c-0.04297,-0.02734 0.38281,0.26172 0.28125,1.09375c-0.11719,0.98047 -0.35156,1.48828 -0.53125,1.71875c-0.17969,0.23047 -0.27344,0.21875 -0.28125,0.21875l-0.84375,0.0625l-0.09375,0.8125c-0.09375,0.86328 -0.44141,1.92188 -0.84375,2.75c-0.20312,0.41406 -0.41016,0.77734 -0.59375,1.03125c-0.18359,0.25391 -0.375,0.39453 -0.28125,0.34375l-0.53125,0.28125v0.59375c0,1.44922 -0.05859,2.63672 0.09375,4.3125v0.125l0.0625,0.125c0.57031,1.53516 1.89063,2.49219 3.34375,3.21875c1.45313,0.72656 3.12109,1.26172 4.6875,1.9375c1.56641,0.67578 3,1.48438 4.0625,2.5625c0.84375,0.85547 1.375,1.98828 1.65625,3.40625h-35.5c0.28125,-1.41406 0.80859,-2.55078 1.65625,-3.40625c1.06641,-1.07812 2.51953,-1.88672 4.09375,-2.5625c1.57422,-0.67578 3.23047,-1.21094 4.6875,-1.9375c1.45703,-0.72656 2.80469,-1.68359 3.375,-3.21875l0.0625,-0.25c0.15234,-1.67578 0.09375,-2.86328 0.09375,-4.3125v-0.59375l-0.53125,-0.28125c0.08984,0.04688 -0.125,-0.08984 -0.3125,-0.34375c-0.1875,-0.25391 -0.41797,-0.61719 -0.625,-1.03125c-0.41406,-0.82812 -0.75391,-1.89453 -0.84375,-2.75l-0.09375,-0.8125l-0.84375,-0.0625c-0.00781,0 -0.10156,0.01172 -0.28125,-0.21875c-0.17969,-0.23047 -0.41406,-0.73828 -0.53125,-1.71875c-0.09766,-0.83203 0.32422,-1.12109 0.28125,-1.09375l0.65625,-0.40625l-0.1875,-0.71875c-0.94141,-3.625 -1.10547,-6.91797 -0.125,-9.15625c0.97656,-2.23047 2.96875,-3.63281 7.125,-3.71875z"></path></g></g></svg>